<?xml version="1.0" standalone="no"?>
<!DOCTYPE svg PUBLIC "-//W3C//DTD SVG 20010904//EN"
 "http://www.w3.org/TR/2001/REC-SVG-20010904/DTD/svg10.dtd">
<svg version="1.0" xmlns="http://www.w3.org/2000/svg"
 width="512.000000pt" height="512.000000pt" viewBox="0 0 512.000000 512.000000"
 preserveAspectRatio="xMidYMid meet">

<g transform="translate(0.000000,512.000000) scale(0.100000,-0.100000)"
fill="#000000" stroke="none">
<path d="M2155 5110 c-687 -42 -1144 -160 -1234 -320 -21 -38 -22 -46 -16
-257 11 -422 16 -3796 5 -3807 -6 -6 -10 -81 -10 -186 0 -164 2 -177 23 -212
41 -69 141 -127 302 -177 488 -151 1424 -194 2167 -101 452 57 730 154 808
282 18 30 20 50 20 210 0 107 -4 179 -10 183 -7 4 -10 467 -10 1356 0 1336 0
1349 -20 1369 -30 30 -83 27 -109 -6 l-21 -27 0 -1353 0 -1354 -32 -20 c-78
-47 -284 -107 -486 -139 -563 -92 -1294 -95 -1881 -10 -142 21 -143 21 -170 2
-41 -31 -41 -101 0 -124 41 -21 338 -60 609 -79 190 -13 747 -13 942 0 307 21
576 59 775 111 94 24 144 41 251 86 21 9 16 -130 -6 -149 -49 -44 -202 -100
-372 -136 -770 -166 -2123 -115 -2545 95 -81 41 -85 47 -85 125 0 37 2 68 4
68 2 0 23 -9 47 -20 83 -37 149 -16 149 48 0 42 -19 61 -101 101 l-74 36 -3
1736 -2 1736 112 -38 c265 -90 599 -138 1111 -160 642 -28 1375 48 1695 175
l62 25 0 -219 c0 -142 4 -228 11 -244 22 -47 92 -55 127 -14 8 10 13 105 17
314 2 164 7 397 10 517 6 211 5 219 -16 257 -83 148 -469 258 -1089 310 -167
14 -780 21 -955 10z m918 -160 c413 -32 757 -99 918 -180 97 -49 99 -65 10
-114 l-49 -26 -86 24 c-353 103 -973 156 -1561 135 -359 -13 -434 -21 -457
-50 -27 -32 -20 -87 13 -111 25 -19 33 -19 155 -9 438 39 1069 19 1484 -45
159 -25 160 -28 4 -53 -557 -87 -1321 -87 -1884 0 -74 12 -136 22 -138 24 -2
2 21 8 52 15 62 13 86 36 86 83 0 30 -39 77 -64 77 -27 0 -254 -50 -322 -71
l-65 -20 -49 27 c-90 49 -88 64 9 114 196 98 633 171 1176 194 131 6 626 -4
768 -14z m-1782 -519 c532 -141 1489 -172 2181 -71 238 35 426 81 535 130 l63
29 0 -74 0 -73 -47 -30 c-101 -64 -316 -121 -603 -161 -286 -39 -413 -46 -860
-46 -447 0 -575 7 -859 46 -279 39 -507 99 -603 159 l-48 30 0 74 0 75 64 -29
c35 -16 115 -43 177 -59z"/>
<path d="M1855 3890 c-335 -53 -616 -323 -675 -651 -17 -91 -14 -241 5 -329
69 -304 304 -541 611 -617 110 -27 287 -22 397 11 143 43 245 101 344 196 409
397 305 1063 -206 1315 -136 67 -329 98 -476 75z m212 -151 c302 -42 541 -293
569 -600 23 -259 -127 -525 -361 -640 -107 -52 -181 -69 -297 -70 -258 0 -478
135 -593 366 -51 104 -68 189 -63 320 8 179 64 310 189 434 75 75 149 123 246
158 110 40 192 48 310 32z"/>
<path d="M1772 3287 c-31 -33 -29 -80 4 -106 25 -19 40 -21 204 -21 198 0 214
5 226 67 5 26 1 37 -19 57 l-26 26 -184 0 c-179 0 -184 -1 -205 -23z"/>
<path d="M1552 2990 c-32 -30 -30 -82 4 -109 26 -20 37 -21 426 -21 l399 0 24
25 c14 13 25 36 25 50 0 14 -11 37 -25 50 l-24 25 -404 0 c-392 0 -404 -1
-425 -20z"/>
<path d="M3213 3626 c-67 -22 -127 -62 -178 -118 -104 -116 -137 -254 -100
-425 46 -217 163 -410 330 -542 106 -85 164 -105 295 -105 129 0 194 22 273
94 80 73 102 124 102 240 0 123 -17 156 -140 275 -107 105 -144 170 -169 304
-8 45 -26 102 -40 125 -32 55 -97 113 -155 139 -57 25 -162 32 -218 13z"/>
<path d="M2729 2429 c-61 -9 -116 -39 -160 -86 -49 -50 -64 -83 -83 -177 -21
-105 -57 -167 -137 -239 -37 -33 -80 -82 -96 -111 -24 -44 -28 -62 -28 -131 0
-63 5 -89 23 -122 51 -97 132 -153 251 -174 239 -43 508 199 592 530 43 169
11 310 -93 414 -77 77 -173 111 -269 96z"/>
<path d="M1429 1895 c-72 -23 -139 -75 -186 -144 -144 -210 -80 -480 172 -726
171 -168 386 -253 546 -215 122 29 233 111 280 207 17 34 25 70 27 125 7 141
-56 235 -212 316 -113 58 -179 123 -229 227 -47 95 -111 166 -178 194 -65 29
-160 35 -220 16z"/>
<path d="M3443 1885 c-109 -34 -180 -100 -244 -227 -77 -155 -160 -237 -306
-304 -89 -40 -160 -105 -199 -181 -26 -53 -29 -67 -29 -158 0 -93 2 -105 33
-167 76 -155 279 -261 465 -243 166 16 370 128 525 289 224 234 312 487 243
696 -47 139 -160 261 -275 295 -60 18 -156 18 -213 0z"/>
</g>
</svg>
